# xmcd CD database file
#
# Track frame offsets:
#	150
#	14063
#	39096
#	56791
#	71063
#	86141
#	107022
#	128084
#	147248
#	166726
#	186315
#	207815
#	227039
#	249112
#	266330
#	287563
#	305737
#	325644
#
# Disc length: 4578 seconds
#
# Revision: 0
# Processed by: cddbd v1.4PL0 Copyright (c) Steve Scherf et al.
# Submitted via: CDex 1.50Beta7
#
DISCID=fb11e012
DTITLE=Various Artist - Caribean 2002
DYEAR=2002
DGENRE=Merengue
TTITLE0=Introduction
TTITLE1=The Soca Boys - Follow the leader
TTITLE2=Proyecto uno - mueve la colita
TTITLE3=Melody - Gorilla
TTITLE4=King Africa - Bomba
TTITLE5=Angy Martinez - Live at Jimmy
TTITLE6=Rubby Perez - Vuelve
TTITLE7=Mala Fe - La Vaca
TTITLE8=Gilberto Santa Rosa - yo la agarro bajando
TTITLE9=Yoskar Sarante - Yora alma mia
TTITLE10=Kinito Mendez - Tamarindo seco
TTITLE11=Kalibre - Di bu di bai
TTITLE12=Paquito Guzman - Por unas monedas
TTITLE13=Fernando Villalona - Un Delito
TTITLE14=Raffy Matias - Quiero saber de ti
TTITLE15=Grupo Aventura - Obession
TTITLE16=Tono Rosario - Beso Beso
TTITLE17=Elvis Martines - Maestra
EXTD=YEAR: 2002
EXTT0=
EXTT1=
EXTT2=
EXTT3=
EXTT4=
EXTT5=
EXTT6=
EXTT7=
EXTT8=
EXTT9=
EXTT10=
EXTT11=
EXTT12=
EXTT13=
EXTT14=
EXTT15=
EXTT16=
EXTT17=
PLAYORDER=
